<svg xmlns="http://www.w3.org/2000/svg" xmlns:xlink="http://www.w3.org/1999/xlink" width="500" zoomAndPan="magnify" viewBox="0 0 375 374.999991" height="500" preserveAspectRatio="xMidYMid meet" version="1.0"><defs><g/><clipPath id="4f4d8c777e"><path d="M 1.652344 123.003906 L 375 123.003906 L 375 233.546875 L 1.652344 233.546875 Z M 1.652344 123.003906 " clip-rule="nonzero"/></clipPath><clipPath id="8ca241458a"><path d="M 66 125 L 68 125 L 68 125.734375 L 66 125.734375 Z M 66 125 " clip-rule="nonzero"/></clipPath><clipPath id="b2ced50513"><path d="M 0 120.484375 L 75 120.484375 L 75 125.734375 L 0 125.734375 Z M 0 120.484375 " clip-rule="nonzero"/></clipPath><clipPath id="1cd7db6c75"><path d="M 58 120.484375 L 59 120.484375 L 59 121 L 58 121 Z M 58 120.484375 " clip-rule="nonzero"/></clipPath><clipPath id="bfd70b8f23"><path d="M 60 120.484375 L 61 120.484375 L 61 121 L 60 121 Z M 60 120.484375 " clip-rule="nonzero"/></clipPath><clipPath id="3b3a0818fc"><path d="M 56 120.484375 L 57 120.484375 L 57 121 L 56 121 Z M 56 120.484375 " clip-rule="nonzero"/></clipPath><clipPath id="f44e2914be"><path d="M 226 214 L 325 214 L 325 329 L 226 329 Z M 226 214 " clip-rule="nonzero"/></clipPath><clipPath id="6569564e70"><path d="M 268.28125 214.152344 L 324.644531 241.429688 L 282.664062 328.171875 L 226.304688 300.894531 Z M 268.28125 214.152344 " clip-rule="nonzero"/></clipPath><clipPath id="bfa085a8df"><path d="M 194 231.027344 L 285 231.027344 L 285 236 L 194 236 Z M 194 231.027344 " clip-rule="nonzero"/></clipPath><clipPath id="f54c9612a9"><path d="M 209 231.027344 L 211 231.027344 L 211 232 L 209 232 Z M 209 231.027344 " clip-rule="nonzero"/></clipPath><clipPath id="652cdcc106"><path d="M 208 231.027344 L 209 231.027344 L 209 232 L 208 232 Z M 208 231.027344 " clip-rule="nonzero"/></clipPath><clipPath id="218235a42c"><path d="M 211 231.027344 L 213 231.027344 L 213 232 L 211 232 Z M 211 231.027344 " clip-rule="nonzero"/></clipPath><clipPath id="335adcfd81"><path d="M 0.5625 24.304688 L 93.5625 24.304688 L 93.5625 117.304688 L 0.5625 117.304688 Z M 0.5625 24.304688 " clip-rule="nonzero"/></clipPath></defs><rect x="-37.5" width="450" fill="#ffffff" y="-37.499999" height="449.999989" fill-opacity="1"/><rect x="-37.5" width="450" fill="#ffffff" y="-37.499999" height="449.999989" fill-opacity="1"/><path fill="#1d2c7b" d="M 271.738281 208.703125 C 270.90625 210.605469 270.070312 212.503906 269.230469 214.394531 C 266.320312 214.667969 263 215.019531 259.855469 215.460938 C 251.609375 216.605469 241.242188 219.925781 220.625 229.546875 C 200.007812 239.171875 182.480469 261.507812 168.5625 281.785156 C 154.644531 302.058594 140.898438 347.25 129.726562 348.964844 C 118.558594 350.6875 109.453125 332.816406 105.15625 325.597656 C 100.863281 318.382812 90.207031 295.871094 85.398438 284.535156 C 80.585938 273.191406 66.378906 232.757812 58.820312 206.179688 C 51.257812 179.601562 48.285156 153.945312 47.597656 120.726562 C 46.90625 87.503906 65.230469 69.179688 80.8125 62.992188 C 81.019531 62.914062 81.226562 62.835938 81.445312 62.761719 C 89.507812 59.949219 103.589844 62.101562 120.078125 68.476562 C 136.328125 74.765625 154.925781 85.160156 172.402344 98.960938 C 172.402344 98.960938 142.273438 85.214844 121.308594 85.730469 C 100.347656 86.246094 85.742188 97.929688 78.179688 113.046875 C 70.621094 128.171875 68.902344 159.441406 71.652344 184.871094 C 74.398438 210.300781 85.398438 249.480469 92.269531 270.789062 C 99.144531 292.09375 111.34375 311.507812 119.074219 316.664062 C 126.808594 321.816406 131.445312 314.085938 141.523438 292.320312 C 151.605469 270.558594 177.949219 245.816406 191.242188 235.046875 C 203.535156 225.082031 242.40625 211.09375 271.738281 208.703125 " fill-opacity="1" fill-rule="nonzero"/><path fill="#1d2c7b" d="M 79.898438 58.636719 C 91.121094 53.828125 118.15625 56.121094 144.046875 70.78125 C 169.933594 85.445312 191.238281 98.042969 216.898438 90.941406 C 242.558594 83.839844 272.800781 74.21875 291.359375 84.296875 C 309.914062 94.378906 309.683594 121.410156 302.355469 148.90625 C 295.019531 176.394531 265.242188 246.042969 250.117188 267.808594 C 235 289.574219 230.1875 298.507812 230.1875 298.507812 C 329.386719 196.789062 339.699219 114.769531 335.917969 98.960938 C 332.140625 83.152344 327.785156 76.96875 319.996094 71.925781 C 312.207031 66.886719 292.273438 56.808594 264.78125 64.597656 C 237.289062 72.386719 226.75 77.882812 219.421875 80.402344 C 212.089844 82.921875 193.417969 84.527344 183.335938 81.777344 C 173.253906 79.027344 139.921875 58.179688 121.820312 54.746094 C 94.847656 49.820312 79.898438 58.636719 79.898438 58.636719 " fill-opacity="1" fill-rule="nonzero"/><g clip-path="url(#4f4d8c777e)"><path fill="#ffffff" d="M 1.652344 123.003906 L 389.851562 123.003906 L 389.851562 233.546875 L 1.652344 233.546875 Z M 1.652344 123.003906 " fill-opacity="1" fill-rule="nonzero"/></g><g fill="#1d2c7b" fill-opacity="1"><g transform="translate(11.955355, 217.263362)"><g><path d="M 10.40625 -84.203125 L 44 -84.203125 C 52.664062 -84.203125 59.421875 -82.113281 64.265625 -77.9375 C 69.117188 -73.757812 71.546875 -68.003906 71.546875 -60.671875 C 71.546875 -53.335938 69.101562 -47.5625 64.21875 -43.34375 C 59.332031 -39.125 52.59375 -37.015625 44 -37.015625 L 20.109375 -37.015625 L 20.109375 0 L 10.40625 0 Z M 43.171875 -45.0625 C 49.398438 -45.0625 54.085938 -46.398438 57.234375 -49.078125 C 60.390625 -51.753906 61.96875 -55.617188 61.96875 -60.671875 C 61.96875 -65.710938 60.390625 -69.550781 57.234375 -72.1875 C 54.085938 -74.832031 49.398438 -76.15625 43.171875 -76.15625 L 20.109375 -76.15625 L 20.109375 -45.0625 Z M 43.171875 -45.0625 "/></g></g></g><g fill="#1d2c7b" fill-opacity="1"><g transform="translate(90.957125, 217.263362)"><g><path d="M 76.515625 0 L 66.234375 0 L 55.828125 -28.03125 C 54.554688 -31.5 52.796875 -33.820312 50.546875 -35 C 48.304688 -36.1875 45.132812 -36.78125 41.03125 -36.78125 L 19.984375 -36.78125 L 19.984375 0 L 10.40625 0 L 10.40625 -84.203125 L 43.875 -84.203125 C 52.945312 -84.203125 59.90625 -82.191406 64.75 -78.171875 C 69.601562 -74.148438 72.03125 -68.351562 72.03125 -60.78125 C 72.03125 -55.269531 70.585938 -50.640625 67.703125 -46.890625 C 64.828125 -43.148438 60.671875 -40.488281 55.234375 -38.90625 C 57.671875 -38.507812 59.753906 -37.460938 61.484375 -35.765625 C 63.222656 -34.078125 64.6875 -31.65625 65.875 -28.5 Z M 43.046875 -44.828125 C 55.972656 -44.828125 62.4375 -50.109375 62.4375 -60.671875 C 62.4375 -65.867188 60.859375 -69.75 57.703125 -72.3125 C 54.554688 -74.875 49.671875 -76.15625 43.046875 -76.15625 L 19.984375 -76.15625 L 19.984375 -44.828125 Z M 43.046875 -44.828125 "/></g></g></g><g fill="#1d2c7b" fill-opacity="1"><g transform="translate(174.926088, 217.263362)"><g><path d="M 10.40625 0 L 10.40625 -84.203125 L 20.109375 -84.203125 L 20.109375 0 Z M 10.40625 0 "/></g></g></g><g fill="#1d2c7b" fill-opacity="1"><g transform="translate(207.449284, 217.263362)"><g><path d="M 81.953125 -84.203125 L 90 -84.203125 L 90 0 L 81.015625 0 L 81.015625 -62.5625 L 53.6875 0 L 46.828125 0 L 19.28125 -62.09375 L 19.390625 0 L 10.40625 0 L 10.40625 -84.203125 L 18.453125 -84.203125 L 50.375 -11.59375 Z M 81.953125 -84.203125 "/></g></g></g><g fill="#1d2c7b" fill-opacity="1"><g transform="translate(309.867761, 217.263362)"><g><path d="M 10.40625 0 L 10.40625 -84.203125 L 63.625 -84.203125 L 63.625 -76.15625 L 19.984375 -76.15625 L 19.984375 -46.828125 L 61.265625 -46.828125 L 61.265625 -38.671875 L 19.984375 -38.671875 L 19.984375 -8.046875 L 63.625 -8.046875 L 63.625 0 Z M 10.40625 0 "/></g></g></g><g clip-path="url(#8ca241458a)"><path fill="#1d2c7b" d="M 66.253906 125.03125 C 66.214844 125.09375 66.214844 125.175781 66.296875 125.28125 C 66.359375 125.34375 66.441406 125.386719 66.527344 125.429688 C 66.734375 125.511719 66.816406 125.34375 66.921875 125.261719 C 66.941406 125.238281 66.984375 125.21875 67.003906 125.21875 C 66.777344 125.03125 66.527344 124.96875 66.253906 125.03125 Z M 66.253906 125.03125 " fill-opacity="1" fill-rule="nonzero"/></g><g clip-path="url(#b2ced50513)"><path fill="#1d2c7b" d="M 73.910156 122.171875 C 73.992188 122.007812 73.972656 121.839844 73.742188 121.921875 C 73.472656 122.007812 73.265625 121.902344 72.992188 121.820312 C 72.410156 121.609375 71.78125 121.339844 71.175781 121.339844 C 70.53125 121.339844 70.050781 121.003906 69.488281 120.902344 C 68.820312 120.777344 68.089844 120.714844 67.464844 120.878906 C 66.816406 121.046875 66.171875 120.753906 65.628906 120.984375 C 64.941406 121.277344 64.253906 121.089844 63.605469 121.027344 C 63 120.964844 62.417969 121.339844 61.789062 120.964844 C 61.601562 120.839844 61.144531 121.234375 60.808594 121.277344 C 60.289062 121.339844 59.746094 121.378906 59.246094 121.277344 C 58.621094 121.128906 58.015625 121.171875 57.367188 121.214844 C 55.742188 121.296875 54.113281 121.339844 52.488281 121.359375 C 51.609375 121.378906 50.753906 121.277344 49.878906 121.316406 C 47.875 121.445312 45.875 121.378906 43.890625 121.402344 C 42.140625 121.214844 40.386719 121.421875 38.636719 121.507812 C 37.40625 121.570312 36.175781 121.339844 34.964844 121.757812 C 34.546875 121.632812 34.152344 121.652344 33.710938 121.652344 C 31.730469 121.714844 29.726562 121.734375 27.746094 121.757812 C 26.910156 121.757812 26.078125 121.671875 25.265625 121.921875 C 24.761719 122.089844 24.242188 122.046875 23.71875 121.859375 C 23.15625 121.652344 22.59375 121.714844 22.074219 122.046875 C 21.925781 122.089844 21.757812 122.171875 21.613281 122.132812 C 20.257812 121.796875 18.902344 121.921875 17.546875 122.132812 C 17.296875 122.171875 16.960938 122.277344 16.773438 122.171875 C 16.191406 121.859375 15.648438 122.132812 15.105469 122.132812 C 14.519531 122.132812 13.957031 122.070312 13.375 122.214844 C 13.082031 122.296875 12.746094 122.320312 12.433594 122.277344 C 11.390625 122.171875 10.347656 122.214844 9.304688 122.277344 C 7.886719 122.339844 6.46875 122.257812 5.050781 122.402344 C 3.171875 122.613281 1.273438 122.652344 -0.601562 122.652344 C -4.546875 122.652344 -8.46875 123.050781 -12.410156 123.214844 C -12.828125 123.238281 -13.347656 123.195312 -13.640625 123.402344 C -14.308594 123.90625 -15.078125 123.800781 -16.101562 124.050781 C -11.261719 124.15625 -6.777344 124.59375 -2.25 124.382812 C -0.164062 124.28125 1.941406 124.449219 4.027344 124.511719 C 4.820312 124.53125 5.613281 124.65625 6.386719 124.613281 C 8.222656 124.550781 10.035156 124.34375 11.871094 124.65625 C 12.269531 124.71875 12.726562 124.699219 13.125 124.613281 C 13.707031 124.511719 14.292969 124.550781 14.855469 124.65625 C 15.5 124.800781 16.066406 124.21875 16.710938 124.550781 C 17.859375 124.40625 19.007812 124.761719 20.152344 124.425781 C 21.800781 124.40625 23.449219 124.863281 25.117188 124.53125 C 25.679688 124.800781 26.265625 124.488281 26.808594 124.53125 C 27.414062 124.574219 28.019531 124.636719 28.644531 124.65625 C 29.5 124.675781 30.292969 124.449219 31.125 124.425781 C 32.292969 124.382812 33.441406 125.011719 34.628906 124.46875 C 35.402344 124.800781 36.175781 124.488281 36.945312 124.449219 C 37.363281 124.425781 37.84375 124.363281 38.175781 124.550781 C 38.78125 124.886719 39.367188 124.738281 39.96875 124.675781 C 40.179688 124.65625 40.410156 124.488281 40.574219 124.550781 C 41.578125 124.925781 42.515625 124.449219 43.496094 124.425781 C 44.558594 124.738281 45.625 124.863281 46.707031 124.46875 C 47.5625 124.34375 48.417969 124.636719 49.273438 124.46875 C 49.503906 124.425781 49.773438 124.574219 50.023438 124.636719 C 50.277344 124.675781 50.546875 124.78125 50.796875 124.738281 C 51.546875 124.59375 52.257812 124.84375 52.988281 124.824219 C 53.695312 124.800781 54.40625 124.699219 55.136719 124.761719 C 55.804688 124.824219 56.511719 124.949219 57.140625 124.886719 C 57.867188 124.824219 58.621094 124.925781 59.328125 124.824219 C 60.433594 124.65625 61.519531 124.613281 62.625 124.761719 C 63.75 124.886719 64.941406 124.511719 66.023438 125.136719 C 66.109375 125.09375 66.191406 125.074219 66.277344 125.050781 C 66.296875 124.988281 66.359375 124.949219 66.402344 124.925781 C 66.527344 124.863281 66.691406 124.863281 66.839844 124.863281 C 66.921875 124.863281 67.027344 124.925781 67.089844 124.988281 C 67.234375 125.15625 67.128906 125.199219 67.027344 125.238281 C 67.066406 125.28125 67.109375 125.300781 67.152344 125.34375 C 67.214844 125.40625 67.464844 125.300781 67.570312 125.21875 C 67.777344 125.03125 67.945312 124.925781 68.257812 124.96875 C 68.925781 125.03125 69.570312 124.96875 70.238281 125.136719 C 71.175781 125.363281 72.09375 125.09375 73.011719 124.824219 C 73.285156 124.738281 73.515625 124.550781 73.453125 124.257812 C 73.285156 123.53125 74.078125 123.695312 74.285156 123.320312 C 73.992188 122.945312 73.640625 122.652344 73.910156 122.171875 Z M 23.679688 123.738281 C 23.617188 123.695312 23.574219 123.632812 23.511719 123.59375 C 23.574219 123.632812 23.617188 123.695312 23.679688 123.738281 Z M 46.125 123.402344 C 46.039062 123.445312 45.957031 123.488281 45.894531 123.53125 C 45.957031 123.488281 46.039062 123.445312 46.125 123.402344 Z M 32.816406 123.550781 C 33.003906 123.53125 33.191406 123.53125 33.398438 123.507812 C 33.171875 123.53125 33.003906 123.550781 32.816406 123.550781 Z M 29.351562 123.695312 C 29.289062 123.65625 29.226562 123.59375 29.1875 123.570312 C 29.25 123.59375 29.3125 123.65625 29.351562 123.695312 Z M 29.351562 123.695312 " fill-opacity="1" fill-rule="nonzero"/></g><g clip-path="url(#1cd7db6c75)"><path fill="#1d2c7b" d="M 58.265625 120.652344 C 58.390625 120.671875 58.535156 120.652344 58.683594 120.652344 C 58.683594 120.589844 58.683594 120.527344 58.660156 120.527344 C 58.515625 120.503906 58.390625 120.484375 58.246094 120.503906 C 58.121094 120.527344 58.121094 120.609375 58.265625 120.652344 Z M 58.265625 120.652344 " fill-opacity="1" fill-rule="nonzero"/></g><g clip-path="url(#bfd70b8f23)"><path fill="#1d2c7b" d="M 60.289062 120.527344 C 60.246094 120.503906 60.207031 120.503906 60.164062 120.484375 C 60.121094 120.484375 60.078125 120.503906 60.039062 120.503906 C 60.101562 120.527344 60.144531 120.566406 60.207031 120.566406 C 60.226562 120.589844 60.246094 120.546875 60.289062 120.527344 Z M 60.289062 120.527344 " fill-opacity="1" fill-rule="nonzero"/></g><g clip-path="url(#3b3a0818fc)"><path fill="#1d2c7b" d="M 56.929688 120.546875 C 56.886719 120.527344 56.847656 120.484375 56.824219 120.484375 C 56.742188 120.484375 56.636719 120.503906 56.554688 120.503906 C 56.554688 120.527344 56.574219 120.566406 56.574219 120.566406 C 56.699219 120.566406 56.804688 120.546875 56.929688 120.546875 Z M 56.929688 120.546875 " fill-opacity="1" fill-rule="nonzero"/></g><g clip-path="url(#f44e2914be)"><g clip-path="url(#6569564e70)"><path fill="#ffffff" d="M 268.28125 214.152344 L 324.644531 241.429688 L 282.664062 328.175781 L 226.300781 300.898438 Z M 268.28125 214.152344 " fill-opacity="1" fill-rule="nonzero"/></g></g><path fill="#1d2c7b" d="M 202.339844 235.574219 C 202.382812 235.636719 202.382812 235.722656 202.296875 235.824219 C 202.234375 235.886719 202.152344 235.929688 202.066406 235.972656 C 201.859375 236.054688 201.777344 235.886719 201.671875 235.804688 C 201.652344 235.785156 201.609375 235.761719 201.589844 235.761719 C 201.816406 235.574219 202.066406 235.511719 202.339844 235.574219 Z M 202.339844 235.574219 " fill-opacity="1" fill-rule="nonzero"/><g clip-path="url(#bfa085a8df)"><path fill="#1d2c7b" d="M 194.683594 232.71875 C 194.601562 232.550781 194.621094 232.382812 194.851562 232.46875 C 195.121094 232.550781 195.332031 232.445312 195.601562 232.363281 C 196.183594 232.152344 196.8125 231.882812 197.417969 231.882812 C 198.0625 231.882812 198.542969 231.550781 199.105469 231.445312 C 199.773438 231.320312 200.503906 231.257812 201.128906 231.425781 C 201.777344 231.589844 202.421875 231.296875 202.964844 231.527344 C 203.652344 231.820312 204.34375 231.632812 204.988281 231.570312 C 205.59375 231.507812 206.175781 231.882812 206.804688 231.507812 C 206.992188 231.382812 207.449219 231.777344 207.785156 231.820312 C 208.304688 231.882812 208.847656 231.925781 209.347656 231.820312 C 209.972656 231.675781 210.578125 231.714844 211.226562 231.757812 C 212.851562 231.839844 214.480469 231.882812 216.105469 231.902344 C 216.984375 231.925781 217.839844 231.820312 218.714844 231.863281 C 220.71875 231.988281 222.71875 231.925781 224.703125 231.945312 C 226.453125 231.757812 228.207031 231.964844 229.957031 232.050781 C 231.1875 232.113281 232.417969 231.882812 233.628906 232.300781 C 234.046875 232.175781 234.441406 232.195312 234.882812 232.195312 C 236.863281 232.257812 238.867188 232.277344 240.847656 232.300781 C 241.683594 232.300781 242.515625 232.214844 243.328125 232.46875 C 243.832031 232.632812 244.351562 232.59375 244.875 232.40625 C 245.4375 232.195312 246 232.257812 246.519531 232.59375 C 246.667969 232.632812 246.835938 232.71875 246.980469 232.675781 C 248.335938 232.339844 249.691406 232.46875 251.046875 232.675781 C 251.296875 232.71875 251.632812 232.820312 251.820312 232.71875 C 252.402344 232.40625 252.945312 232.675781 253.488281 232.675781 C 254.074219 232.675781 254.636719 232.613281 255.21875 232.757812 C 255.511719 232.84375 255.847656 232.863281 256.160156 232.820312 C 257.203125 232.71875 258.246094 232.757812 259.289062 232.820312 C 260.707031 232.882812 262.125 232.800781 263.542969 232.945312 C 265.421875 233.15625 267.320312 233.195312 269.195312 233.195312 C 273.140625 233.195312 277.0625 233.59375 281.003906 233.761719 C 281.421875 233.78125 281.941406 233.738281 282.234375 233.949219 C 282.902344 234.449219 283.671875 234.34375 284.695312 234.59375 C 279.855469 234.699219 275.371094 235.136719 270.84375 234.929688 C 268.757812 234.824219 266.652344 234.992188 264.566406 235.054688 C 263.773438 235.074219 262.980469 235.199219 262.207031 235.15625 C 260.371094 235.09375 258.558594 234.886719 256.722656 235.199219 C 256.324219 235.261719 255.867188 235.242188 255.46875 235.15625 C 254.886719 235.054688 254.300781 235.09375 253.738281 235.199219 C 253.09375 235.34375 252.527344 234.761719 251.882812 235.09375 C 250.734375 234.949219 249.589844 235.304688 248.441406 234.96875 C 246.792969 234.949219 245.144531 235.410156 243.476562 235.074219 C 242.914062 235.34375 242.328125 235.03125 241.785156 235.074219 C 241.179688 235.117188 240.578125 235.179688 239.949219 235.199219 C 239.09375 235.21875 238.300781 234.992188 237.46875 234.96875 C 236.300781 234.929688 235.152344 235.554688 233.964844 235.011719 C 233.191406 235.34375 232.417969 235.03125 231.648438 234.992188 C 231.230469 234.96875 230.75 234.90625 230.417969 235.09375 C 229.8125 235.429688 229.226562 235.28125 228.625 235.21875 C 228.414062 235.199219 228.183594 235.03125 228.019531 235.09375 C 227.015625 235.472656 226.078125 234.992188 225.097656 234.96875 C 224.035156 235.28125 222.96875 235.410156 221.886719 235.011719 C 221.03125 234.886719 220.175781 235.179688 219.320312 235.011719 C 219.089844 234.96875 218.820312 235.117188 218.570312 235.179688 C 218.316406 235.21875 218.046875 235.324219 217.796875 235.28125 C 217.046875 235.136719 216.335938 235.386719 215.605469 235.367188 C 214.898438 235.34375 214.1875 235.242188 213.457031 235.304688 C 212.789062 235.367188 212.082031 235.492188 211.457031 235.429688 C 210.726562 235.367188 209.972656 235.472656 209.265625 235.367188 C 208.160156 235.199219 207.074219 235.15625 205.96875 235.304688 C 204.84375 235.429688 203.652344 235.054688 202.570312 235.679688 C 202.484375 235.636719 202.402344 235.617188 202.320312 235.597656 C 202.296875 235.535156 202.234375 235.492188 202.191406 235.472656 C 202.066406 235.410156 201.902344 235.410156 201.753906 235.410156 C 201.671875 235.410156 201.566406 235.472656 201.503906 235.535156 C 201.359375 235.699219 201.464844 235.742188 201.566406 235.785156 C 201.527344 235.824219 201.484375 235.847656 201.441406 235.886719 C 201.378906 235.949219 201.128906 235.847656 201.023438 235.761719 C 200.816406 235.574219 200.648438 235.472656 200.335938 235.511719 C 199.667969 235.574219 199.023438 235.511719 198.355469 235.679688 C 197.417969 235.910156 196.5 235.636719 195.582031 235.367188 C 195.308594 235.28125 195.078125 235.09375 195.140625 234.804688 C 195.308594 234.074219 194.515625 234.238281 194.308594 233.863281 C 194.601562 233.488281 194.953125 233.195312 194.683594 232.71875 Z M 244.914062 234.28125 C 244.976562 234.238281 245.019531 234.175781 245.082031 234.136719 C 245.019531 234.175781 244.976562 234.238281 244.914062 234.28125 Z M 222.46875 233.949219 C 222.554688 233.988281 222.636719 234.03125 222.699219 234.074219 C 222.636719 234.03125 222.554688 233.988281 222.46875 233.949219 Z M 235.777344 234.09375 C 235.589844 234.074219 235.402344 234.074219 235.195312 234.050781 C 235.421875 234.074219 235.589844 234.09375 235.777344 234.09375 Z M 239.242188 234.238281 C 239.304688 234.199219 239.367188 234.136719 239.40625 234.113281 C 239.34375 234.136719 239.28125 234.199219 239.242188 234.238281 Z M 239.242188 234.238281 " fill-opacity="1" fill-rule="nonzero"/></g><g clip-path="url(#f54c9612a9)"><path fill="#1d2c7b" d="M 210.328125 231.195312 C 210.203125 231.214844 210.058594 231.195312 209.910156 231.195312 C 209.910156 231.132812 209.910156 231.070312 209.933594 231.070312 C 210.078125 231.046875 210.203125 231.027344 210.351562 231.046875 C 210.476562 231.070312 210.476562 231.152344 210.328125 231.195312 Z M 210.328125 231.195312 " fill-opacity="1" fill-rule="nonzero"/></g><g clip-path="url(#652cdcc106)"><path fill="#1d2c7b" d="M 208.304688 231.070312 C 208.347656 231.046875 208.390625 231.046875 208.429688 231.027344 C 208.472656 231.027344 208.515625 231.046875 208.554688 231.046875 C 208.492188 231.070312 208.453125 231.109375 208.390625 231.109375 C 208.367188 231.132812 208.347656 231.089844 208.304688 231.070312 Z M 208.304688 231.070312 " fill-opacity="1" fill-rule="nonzero"/></g><g clip-path="url(#218235a42c)"><path fill="#1d2c7b" d="M 211.664062 231.089844 C 211.707031 231.070312 211.746094 231.027344 211.769531 231.027344 C 211.851562 231.027344 211.957031 231.046875 212.039062 231.046875 C 212.039062 231.070312 212.019531 231.109375 212.019531 231.109375 C 211.894531 231.109375 211.789062 231.089844 211.664062 231.089844 Z M 211.664062 231.089844 " fill-opacity="1" fill-rule="nonzero"/></g><g clip-path="url(#335adcfd81)"><path fill="#1d2c7b" d="M 30.890625 54.625 L 30.890625 40.351562 C 30.890625 31.484375 38.078125 24.300781 46.941406 24.300781 C 47.007812 24.300781 47.070312 24.300781 47.136719 24.300781 C 51.414062 24.300781 55.511719 25.996094 58.53125 29.019531 C 61.550781 32.042969 63.25 36.140625 63.25 40.414062 L 63.25 54.625 L 77.464844 54.625 C 81.738281 54.625 85.835938 56.324219 88.859375 59.347656 C 91.878906 62.371094 93.578125 66.46875 93.578125 70.742188 C 93.578125 70.785156 93.578125 70.832031 93.578125 70.875 C 93.578125 75.148438 91.878906 79.246094 88.859375 82.269531 C 85.835938 85.292969 81.738281 86.988281 77.464844 86.988281 L 63.25 86.988281 L 63.25 101.203125 C 63.25 105.476562 61.550781 109.574219 58.53125 112.597656 C 55.511719 115.617188 51.414062 117.316406 47.136719 117.316406 C 47.09375 117.316406 47.046875 117.316406 47.003906 117.316406 C 42.730469 117.316406 38.628906 115.617188 35.609375 112.597656 C 32.589844 109.574219 30.890625 105.476562 30.890625 101.203125 L 30.890625 86.988281 L 16.613281 86.988281 C 7.75 86.988281 0.5625 79.804688 0.5625 70.9375 C 0.5625 70.875 0.5625 70.808594 0.5625 70.742188 C 0.5625 66.46875 2.261719 62.371094 5.28125 59.347656 C 8.304688 56.324219 12.402344 54.625 16.675781 54.625 Z M 32.675781 58.199219 C 33.660156 58.199219 34.460938 57.398438 34.460938 56.414062 L 34.460938 40.351562 C 34.460938 33.457031 40.046875 27.871094 46.941406 27.871094 C 47.007812 27.871094 47.070312 27.871094 47.136719 27.871094 C 50.460938 27.871094 53.65625 29.191406 56.007812 31.542969 C 58.359375 33.898438 59.679688 37.085938 59.679688 40.414062 C 59.679688 40.414062 59.679688 56.414062 59.679688 56.414062 C 59.679688 57.398438 60.480469 58.199219 61.464844 58.199219 L 77.464844 58.199219 C 80.792969 58.199219 83.984375 59.519531 86.335938 61.875 C 88.6875 64.222656 90.007812 67.414062 90.007812 70.742188 C 90.007812 70.785156 90.007812 70.832031 90.007812 70.875 C 90.007812 74.203125 88.6875 77.390625 86.335938 79.742188 C 83.984375 82.097656 80.792969 83.417969 77.464844 83.417969 C 77.464844 83.417969 61.464844 83.417969 61.464844 83.417969 C 60.480469 83.417969 59.679688 84.21875 59.679688 85.203125 L 59.679688 101.203125 C 59.679688 104.53125 58.359375 107.71875 56.007812 110.074219 C 53.65625 112.425781 50.460938 113.746094 47.136719 113.746094 C 47.09375 113.746094 47.046875 113.746094 47.003906 113.746094 C 43.679688 113.746094 40.484375 112.425781 38.132812 110.074219 C 35.78125 107.71875 34.460938 104.53125 34.460938 101.203125 C 34.460938 101.203125 34.460938 85.203125 34.460938 85.203125 C 34.460938 84.21875 33.660156 83.417969 32.675781 83.417969 L 16.613281 83.417969 C 9.722656 83.417969 4.132812 77.832031 4.132812 70.9375 C 4.132812 70.875 4.132812 70.808594 4.132812 70.742188 C 4.132812 67.414062 5.453125 64.222656 7.804688 61.875 C 10.15625 59.519531 13.347656 58.199219 16.675781 58.199219 C 16.675781 58.199219 32.675781 58.199219 32.675781 58.199219 Z M 32.675781 58.199219 " fill-opacity="1" fill-rule="evenodd"/></g><g fill="#1d2c7b" fill-opacity="1"><g transform="translate(206.306518, 265.817431)"><g><path d="M 1.78125 -16.484375 L 7.84375 -16.484375 C 10.550781 -16.484375 12.648438 -15.765625 14.140625 -14.328125 C 15.628906 -12.898438 16.375 -10.878906 16.375 -8.265625 C 16.375 -5.640625 15.628906 -3.601562 14.140625 -2.15625 C 12.648438 -0.71875 10.550781 0 7.84375 0 L 1.78125 0 Z M 7.671875 -2.4375 C 11.460938 -2.4375 13.359375 -4.378906 13.359375 -8.265625 C 13.359375 -12.128906 11.460938 -14.0625 7.671875 -14.0625 L 4.765625 -14.0625 L 4.765625 -2.4375 Z M 7.671875 -2.4375 "/></g></g></g><g fill="#1d2c7b" fill-opacity="1"><g transform="translate(223.94206, 265.817431)"><g><path d="M 11.8125 -5.703125 L 3.75 -5.703125 C 3.8125 -4.453125 4.125 -3.523438 4.6875 -2.921875 C 5.25 -2.328125 6.085938 -2.03125 7.203125 -2.03125 C 8.484375 -2.03125 9.671875 -2.445312 10.765625 -3.28125 L 11.59375 -1.296875 C 11.039062 -0.847656 10.359375 -0.488281 9.546875 -0.21875 C 8.742188 0.0507812 7.921875 0.1875 7.078125 0.1875 C 5.171875 0.1875 3.664062 -0.351562 2.5625 -1.4375 C 1.46875 -2.519531 0.921875 -4 0.921875 -5.875 C 0.921875 -7.070312 1.160156 -8.128906 1.640625 -9.046875 C 2.117188 -9.972656 2.789062 -10.695312 3.65625 -11.21875 C 4.519531 -11.738281 5.5 -12 6.59375 -12 C 8.195312 -12 9.46875 -11.476562 10.40625 -10.4375 C 11.34375 -9.394531 11.8125 -7.960938 11.8125 -6.140625 Z M 6.671875 -9.90625 C 5.898438 -9.90625 5.269531 -9.675781 4.78125 -9.21875 C 4.289062 -8.769531 3.976562 -8.113281 3.84375 -7.25 L 9.28125 -7.25 C 9.1875 -8.125 8.921875 -8.785156 8.484375 -9.234375 C 8.046875 -9.679688 7.441406 -9.90625 6.671875 -9.90625 Z M 6.671875 -9.90625 "/></g></g></g><g fill="#1d2c7b" fill-opacity="1"><g transform="translate(236.624831, 265.817431)"><g><path d="M 8.265625 -12 C 11.054688 -12 12.453125 -10.390625 12.453125 -7.171875 L 12.453125 0 L 9.5625 0 L 9.5625 -7.046875 C 9.5625 -7.960938 9.382812 -8.632812 9.03125 -9.0625 C 8.675781 -9.488281 8.128906 -9.703125 7.390625 -9.703125 C 6.503906 -9.703125 5.789062 -9.421875 5.25 -8.859375 C 4.71875 -8.296875 4.453125 -7.550781 4.453125 -6.625 L 4.453125 0 L 1.578125 0 L 1.578125 -8.375 C 1.578125 -9.613281 1.515625 -10.71875 1.390625 -11.6875 L 4.09375 -11.6875 L 4.3125 -9.765625 C 4.707031 -10.484375 5.25 -11.035156 5.9375 -11.421875 C 6.625 -11.804688 7.398438 -12 8.265625 -12 Z M 8.265625 -12 "/></g></g></g><g fill="#1d2c7b" fill-opacity="1"><g transform="translate(250.580519, 265.817431)"><g><path d="M 5.25 -9.515625 L 5.25 -4.28125 C 5.25 -2.90625 5.890625 -2.21875 7.171875 -2.21875 C 7.535156 -2.21875 7.925781 -2.28125 8.34375 -2.40625 L 8.34375 -0.109375 C 7.832031 0.0664062 7.210938 0.15625 6.484375 0.15625 C 5.160156 0.15625 4.140625 -0.210938 3.421875 -0.953125 C 2.710938 -1.691406 2.359375 -2.753906 2.359375 -4.140625 L 2.359375 -9.515625 L 0.109375 -9.515625 L 0.109375 -11.6875 L 2.359375 -11.6875 L 2.359375 -14.546875 L 5.25 -15.515625 L 5.25 -11.6875 L 8.359375 -11.6875 L 8.359375 -9.515625 Z M 5.25 -9.515625 "/></g></g></g><g fill="#1d2c7b" fill-opacity="1"><g transform="translate(259.352006, 265.817431)"><g><path d="M 12.765625 -11.6875 L 12.765625 0 L 9.90625 0 L 9.90625 -1.875 C 9.550781 -1.226562 9.039062 -0.722656 8.375 -0.359375 C 7.71875 0.00390625 6.960938 0.1875 6.109375 0.1875 C 5.085938 0.1875 4.179688 -0.0546875 3.390625 -0.546875 C 2.609375 -1.046875 2 -1.75 1.5625 -2.65625 C 1.132812 -3.570312 0.921875 -4.628906 0.921875 -5.828125 C 0.921875 -7.035156 1.140625 -8.101562 1.578125 -9.03125 C 2.023438 -9.96875 2.640625 -10.695312 3.421875 -11.21875 C 4.210938 -11.738281 5.109375 -12 6.109375 -12 C 6.960938 -12 7.71875 -11.816406 8.375 -11.453125 C 9.039062 -11.085938 9.550781 -10.582031 9.90625 -9.9375 L 9.90625 -11.6875 Z M 6.90625 -2.078125 C 7.863281 -2.078125 8.601562 -2.410156 9.125 -3.078125 C 9.644531 -3.742188 9.90625 -4.675781 9.90625 -5.875 C 9.90625 -7.113281 9.644531 -8.0625 9.125 -8.71875 C 8.601562 -9.382812 7.851562 -9.71875 6.875 -9.71875 C 5.914062 -9.71875 5.171875 -9.375 4.640625 -8.6875 C 4.109375 -8.007812 3.84375 -7.054688 3.84375 -5.828125 C 3.84375 -4.628906 4.109375 -3.703125 4.640625 -3.046875 C 5.171875 -2.398438 5.925781 -2.078125 6.90625 -2.078125 Z M 6.90625 -2.078125 "/></g></g></g><g fill="#1d2c7b" fill-opacity="1"><g transform="translate(273.677985, 265.817431)"><g><path d="M 1.578125 0 L 1.578125 -17.046875 L 4.453125 -17.046875 L 4.453125 0 Z M 1.578125 0 "/></g></g></g><g fill="#1d2c7b" fill-opacity="1"><g transform="translate(279.7185, 265.817431)"><g/></g></g><g fill="#1d2c7b" fill-opacity="1"><g transform="translate(286.059885, 265.817431)"><g><path d="M 9.265625 0.203125 C 7.640625 0.203125 6.222656 -0.140625 5.015625 -0.828125 C 3.804688 -1.523438 2.875 -2.507812 2.21875 -3.78125 C 1.570312 -5.0625 1.25 -6.554688 1.25 -8.265625 C 1.25 -9.960938 1.570312 -11.445312 2.21875 -12.71875 C 2.875 -14 3.804688 -14.984375 5.015625 -15.671875 C 6.222656 -16.359375 7.640625 -16.703125 9.265625 -16.703125 C 10.378906 -16.703125 11.425781 -16.523438 12.40625 -16.171875 C 13.382812 -15.828125 14.195312 -15.347656 14.84375 -14.734375 L 13.875 -12.546875 C 13.132812 -13.148438 12.394531 -13.585938 11.65625 -13.859375 C 10.925781 -14.128906 10.144531 -14.265625 9.3125 -14.265625 C 7.71875 -14.265625 6.484375 -13.742188 5.609375 -12.703125 C 4.742188 -11.671875 4.3125 -10.191406 4.3125 -8.265625 C 4.3125 -6.316406 4.742188 -4.820312 5.609375 -3.78125 C 6.472656 -2.738281 7.707031 -2.21875 9.3125 -2.21875 C 10.144531 -2.21875 10.925781 -2.351562 11.65625 -2.625 C 12.394531 -2.894531 13.132812 -3.332031 13.875 -3.9375 L 14.84375 -1.765625 C 14.195312 -1.140625 13.382812 -0.65625 12.40625 -0.3125 C 11.425781 0.03125 10.378906 0.203125 9.265625 0.203125 Z M 9.265625 0.203125 "/></g></g></g><g fill="#1d2c7b" fill-opacity="1"><g transform="translate(301.913358, 265.817431)"><g><path d="M 1.578125 0 L 1.578125 -17.046875 L 4.453125 -17.046875 L 4.453125 0 Z M 1.578125 0 "/></g></g></g><g fill="#1d2c7b" fill-opacity="1"><g transform="translate(307.953873, 265.817431)"><g><path d="M 1.578125 0 L 1.578125 -11.6875 L 4.453125 -11.6875 L 4.453125 0 Z M 1.390625 -16.984375 L 4.609375 -16.984375 L 4.609375 -14.140625 L 1.390625 -14.140625 Z M 1.390625 -16.984375 "/></g></g></g><g fill="#1d2c7b" fill-opacity="1"><g transform="translate(313.994389, 265.817431)"><g><path d="M 8.265625 -12 C 11.054688 -12 12.453125 -10.390625 12.453125 -7.171875 L 12.453125 0 L 9.5625 0 L 9.5625 -7.046875 C 9.5625 -7.960938 9.382812 -8.632812 9.03125 -9.0625 C 8.675781 -9.488281 8.128906 -9.703125 7.390625 -9.703125 C 6.503906 -9.703125 5.789062 -9.421875 5.25 -8.859375 C 4.71875 -8.296875 4.453125 -7.550781 4.453125 -6.625 L 4.453125 0 L 1.578125 0 L 1.578125 -8.375 C 1.578125 -9.613281 1.515625 -10.71875 1.390625 -11.6875 L 4.09375 -11.6875 L 4.3125 -9.765625 C 4.707031 -10.484375 5.25 -11.035156 5.9375 -11.421875 C 6.625 -11.804688 7.398438 -12 8.265625 -12 Z M 8.265625 -12 "/></g></g></g><g fill="#1d2c7b" fill-opacity="1"><g transform="translate(327.950077, 265.817431)"><g><path d="M 1.578125 0 L 1.578125 -11.6875 L 4.453125 -11.6875 L 4.453125 0 Z M 1.390625 -16.984375 L 4.609375 -16.984375 L 4.609375 -14.140625 L 1.390625 -14.140625 Z M 1.390625 -16.984375 "/></g></g></g><g fill="#1d2c7b" fill-opacity="1"><g transform="translate(333.990593, 265.817431)"><g><path d="M 6.875 0.1875 C 5.65625 0.1875 4.597656 -0.0546875 3.703125 -0.546875 C 2.804688 -1.046875 2.117188 -1.742188 1.640625 -2.640625 C 1.160156 -3.546875 0.921875 -4.609375 0.921875 -5.828125 C 0.921875 -7.054688 1.171875 -8.128906 1.671875 -9.046875 C 2.179688 -9.972656 2.894531 -10.695312 3.8125 -11.21875 C 4.726562 -11.738281 5.789062 -12 7 -12 C 7.832031 -12 8.632812 -11.863281 9.40625 -11.59375 C 10.1875 -11.332031 10.8125 -10.972656 11.28125 -10.515625 L 10.46875 -8.46875 C 9.96875 -8.875 9.441406 -9.179688 8.890625 -9.390625 C 8.335938 -9.597656 7.789062 -9.703125 7.25 -9.703125 C 6.195312 -9.703125 5.375 -9.375 4.78125 -8.71875 C 4.195312 -8.0625 3.90625 -7.113281 3.90625 -5.875 C 3.90625 -4.644531 4.195312 -3.703125 4.78125 -3.046875 C 5.363281 -2.398438 6.1875 -2.078125 7.25 -2.078125 C 7.789062 -2.078125 8.335938 -2.1875 8.890625 -2.40625 C 9.441406 -2.625 9.96875 -2.929688 10.46875 -3.328125 L 11.28125 -1.296875 C 10.78125 -0.835938 10.132812 -0.472656 9.34375 -0.203125 C 8.5625 0.0546875 7.738281 0.1875 6.875 0.1875 Z M 6.875 0.1875 "/></g></g></g></svg>